<svg width="24" height="22" viewBox="0 0 24 22" fill="none" xmlns="http://www.w3.org/2000/svg">
<path d="M8.8 5.2H5.6V1.9C5.6 1.5 5.3 1.1 4.8 1.1C4.3 1.1 4.1 1.5 4.1 1.9V5.2H0.8C0.4 5.2 0 5.5 0 6C0 6.5 0.3 6.8 0.8 6.8H4.1V10.1C4.1 10.5 4.4 10.9 4.9 10.9C5.4 10.9 5.7 10.6 5.7 10.1V6.7H9C9.4 6.7 9.8 6.4 9.8 5.9C9.8 5.4 9.3 5.2 8.8 5.2V5.2ZM23.8 0.300001V0.200001H23.7C23.6 0.200001 14.5 1.4 9.3 11.9C5.5 19.5 5.7 21.8 6 21.8C6.3 21.9 9.4 15.3 12.7 12.6C17.9 11.5 19.3 9 19.3 9C19.3 9 17.8 9.2 17.2 9.2C16.4 9.2 15.8 9 15.5 8.9C16.8 7.7 17.9 7.4 19 7.2C19.9 7 20.8 6.8 22 6C24.2 4.4 23.9 0.500001 23.8 0.300001V0.300001Z" fill="#696974"/>
</svg>
